<svg>
  <symbol id="pause" width="16" height="16" viewBox="0 0 16 16" fill="none" xmlns="http://www.w3.org/2000/svg">
    <path d="M2.89882 0.352787C1.29791 -0.474644 0 0.203197 0 1.86558V14.1332C0 15.7973 1.29791 16.4742 2.89882 15.6476L14.7989 9.49828C16.4004 8.67055 16.4004 7.32952 14.7989 6.50199L2.89882 0.352787Z" fill="white"/>
  </symbol>
  <symbol id="start" width="16" height="16" viewBox="0 0 16 16" fill="none" xmlns="http://www.w3.org/2000/svg">
    <path d="M5.6 1.71429V14.2857C5.6 14.7404 5.34714 15.1764 4.89706 15.4979C4.44697 15.8194 3.83652 16 3.2 16H2.4C1.76348 16 1.15303 15.8194 0.702944 15.4979C0.252856 15.1764 0 14.7404 0 14.2857V1.71429C0 1.25963 0.252856 0.823594 0.702944 0.502103C1.15303 0.180612 1.76348 0 2.4 0H3.2C3.83652 0 4.44697 0.180612 4.89706 0.502103C5.34714 0.823594 5.6 1.25963 5.6 1.71429ZM13.6 0H12.8C12.1635 0 11.553 0.180612 11.1029 0.502103C10.6529 0.823594 10.4 1.25963 10.4 1.71429V14.2857C10.4 14.7404 10.6529 15.1764 11.1029 15.4979C11.553 15.8194 12.1635 16 12.8 16H13.6C14.2365 16 14.847 15.8194 15.2971 15.4979C15.7471 15.1764 16 14.7404 16 14.2857V1.71429C16 1.25963 15.7471 0.823594 15.2971 0.502103C14.847 0.180612 14.2365 0 13.6 0Z" fill="white"/>
  </symbol>
  <symbol id="reset" width="16" height="16" viewBox="0 0 16 16" fill="none" xmlns="http://www.w3.org/2000/svg">
    <path d="M8.58307e-06 8.00543C-0.00275993 9.79285 0.595805 11.5295 1.69982 12.9371C2.80383 14.3447 4.34939 15.3419 6.08892 15.7689C7.82846 16.1959 9.66128 16.028 11.2938 15.292C12.9263 14.5561 14.264 13.2948 15.0927 11.7101C15.9213 10.1254 16.1929 8.30904 15.864 6.55201C15.535 4.79499 14.6245 3.19897 13.2784 2.01963C11.9323 0.840283 10.2284 0.145865 8.43974 0.0476144C6.65105 -0.0506361 4.88107 0.452967 3.41334 1.47775L3.51112 1.19394C3.58656 0.964594 3.5676 0.714742 3.45841 0.499347C3.34922 0.283951 3.15875 0.120656 2.9289 0.0453844C2.69904 -0.0298874 2.44863 -0.0109699 2.23276 0.0979754C2.01688 0.206921 1.85322 0.396969 1.77779 0.626313L0.888897 3.28705C0.844819 3.42043 0.833115 3.56235 0.85475 3.70112C0.876385 3.8399 0.930739 3.97156 1.01334 4.08528C1.09939 4.20618 1.21445 4.30363 1.348 4.3687C1.48155 4.43378 1.62931 4.46441 1.77779 4.45778H4.44445C4.6802 4.45778 4.90629 4.36434 5.07299 4.19801C5.23969 4.03168 5.33334 3.80609 5.33334 3.57087C5.33013 3.38314 5.26729 3.20127 5.15388 3.05145C5.04046 2.90163 4.88232 2.79159 4.70223 2.73717C5.87153 2.00798 7.25046 1.68699 8.62244 1.82462C9.99441 1.96225 11.2817 2.5507 12.2821 3.49754C13.2825 4.44439 13.9394 5.69599 14.1495 7.05575C14.3597 8.41551 14.1112 9.8064 13.4431 11.0099C12.775 12.2135 11.7251 13.1615 10.4584 13.7051C9.19174 14.2487 7.77995 14.3571 6.44482 14.0132C5.10969 13.6693 3.92686 12.8927 3.08212 11.8053C2.23738 10.7179 1.77858 9.38127 1.77779 8.00543C1.77779 7.77021 1.68414 7.54462 1.51744 7.37829C1.35074 7.21196 1.12465 7.11852 0.888897 7.11852C0.65315 7.11852 0.427056 7.21196 0.260358 7.37829C0.0936584 7.54462 8.58307e-06 7.77021 8.58307e-06 8.00543Z" fill="white"/>
  </symbol>
  <symbol id="settings" width="16" height="16" viewBox="0 0 16 16" fill="none" xmlns="http://www.w3.org/2000/svg">
    <path d="M15.723 9.75334L14.2128 8.60334C14.2319 8.426 14.2484 8.21869 14.2484 7.99934C14.2484 7.78 14.2326 7.57269 14.2128 7.39534L15.7244 6.24469C16.0051 6.02869 16.0818 5.64534 15.9031 5.32603L14.3326 2.68C14.1648 2.38134 13.7972 2.228 13.4241 2.362L11.6421 3.05866C11.3004 2.81866 10.9424 2.616 10.572 2.454L10.3009 0.613344C10.2564 0.264 9.94421 0 9.57522 0H6.42602C6.05701 0 5.74553 0.264 5.70169 0.608L5.42991 2.45534C5.07117 2.61269 4.71861 2.81269 4.36192 3.06L2.57508 2.36134C2.24028 2.23534 1.83978 2.37666 1.67342 2.674L0.100886 5.32334C-0.084633 5.62869 -0.00796721 6.02534 0.278896 6.24669L1.78914 7.39669C1.76517 7.62134 1.75355 7.81669 1.75355 8.00003C1.75355 8.18338 1.7652 8.37869 1.78914 8.60403L0.277516 9.75469C-0.00318562 9.97134 -0.0791775 10.3547 0.0995061 10.6733L1.67002 13.3193C1.83776 13.6173 2.20196 13.772 2.57848 13.6373L4.36054 12.9407C4.70148 13.18 5.05952 13.3827 5.42991 13.5453L5.70102 15.3853C5.7455 15.736 6.05701 16 6.4267 16H9.5759C9.94491 16 10.2571 15.736 10.3009 15.392L10.5727 13.5453C10.9314 13.3873 11.2833 13.188 11.6407 12.94L13.4275 13.6387C13.513 13.6713 13.6041 13.688 13.6959 13.688C13.9615 13.688 14.2059 13.5467 14.3291 13.3267L15.9065 10.6667C16.0818 10.3547 16.0051 9.97134 15.723 9.75334ZM8.00061 10.6667C6.49037 10.6667 5.26217 9.47066 5.26217 8C5.26217 6.52934 6.49037 5.33334 8.00061 5.33334C9.51085 5.33334 10.739 6.52934 10.739 8C10.739 9.47066 9.51085 10.6667 8.00061 10.6667Z" fill="white"/>
  </symbol>
</svg>